<?xml version="1.0" encoding="utf-8"?>
<!-- Generator: Adobe Illustrator 27.2.0, SVG Export Plug-In . SVG Version: 6.00 Build 0)  -->
<svg version="1.1" id="图层_1" xmlns="http://www.w3.org/2000/svg" xmlns:xlink="http://www.w3.org/1999/xlink" x="0px" y="0px"
	 viewBox="0 0 9550.1 1807.9" style="enable-background:new 0 0 9550.1 1807.9;" xml:space="preserve">
<style type="text/css">
	.st0{fill:#1D93AB;}
</style>
<path class="st0" d="M798.2,0C600.2,0,424.3,127.3,363,315.3C235.7,341.5,125.8,421.1,61.4,533.9c-99.3,171.4-76.6,386.9,56.4,533.8
	c-41.1,123.1-27,257.7,38.6,369.2c98.7,172,297.3,260.2,491.6,219.2c86.1,97,209.8,152.3,339.6,151.8c198,0,373.9-127.3,435.3-315.3
	c127.5-26.3,237.2-105.9,301-218.5c99.9-171.4,77.2-386.9-55.8-533.9v-0.6c41.1-123.1,27-257.8-38.6-369.8
	c-98.7-171.4-297.3-259.6-491-218.6C1051.9,54.4,928-0.6,798.2,0L798.2,0z M798.2,117.5l-0.6,0.6c79.7,0,156.3,27.5,217.6,78.4
	c-2.5,1.2-7.4,4.3-11,6.1L643.7,410.2c-18.4,10.4-29.4,30-29.4,51.4v487.3l-155.1-89.4V456.7C459.1,269.6,610.8,117.8,798.2,117.5
	L798.2,117.5z M1232.4,259.4c121.6-0.2,234,64.5,294.7,169.8c39.2,68.6,53.9,148.8,40.4,226.5c-2.5-1.8-7.3-4.3-10.4-6.1
	l-360.4-208.2c-18.4-10.4-41-10.4-59.4,0L714.9,685.1V506.3l348.7-201.4C1114.9,275.2,1173.1,259.5,1232.4,259.4z M340.9,444.4
	v427.9c0,21.4,11,40.4,29.4,51.4l421.7,243l-155.7,90l-348.2-200.8C126.1,962.1,70.7,755,164.3,593.1
	C204,524.5,266.4,471.9,340.9,444.4z M1148.8,550.4l348.8,200.8c162.5,93.7,217.6,300.6,123.8,462.8l0.6,0.6
	c-39.8,68.6-102.4,121.2-176.5,148.2v-428c0-21.4-11-41-29.4-51.4L993.8,639.7L1148.8,550.4L1148.8,550.4z M892.6,697.9l177.8,102.8
	v205.1l-177.8,102.8l-177.8-102.8V800.7L892.6,697.9z M1172.1,859.5l155.1,89.4v402.2c0,187.3-152,339.2-339,339.2v-0.6
	c-79.1,0-156.3-27.6-217-78.4c2.5-1.2,8-4.3,11-6.1l360.4-207.5c18.4-10.4,30-30,29.4-51.4L1172.1,859.5L1172.1,859.5z
	 M1070.9,1122.8v178.8l-348.8,200.8c-162.5,93.1-369.6,38-463.4-123.7h0.6c-39.8-68-54-148.8-40.5-226.5c2.5,1.8,7.4,4.3,10.4,6.1
	l360.4,208.2c18.4,10.4,41,10.4,59.4,0L1070.9,1122.8L1070.9,1122.8z"/>
<g>
	<path class="st0" d="M2766.1,1081.2l194.3,21.3c-12.5,116.5-57.5,212.4-135.1,287.6c-77.6,75.3-179.4,112.9-305.5,112.9
		c-106.3,0-192.5-26.7-258.7-80.1c-66.2-53.4-117.2-125.8-153-217.3c-35.8-91.5-53.7-192.3-53.7-302.6c0-177.3,42-321.4,126.1-432.5
		c84.1-111.1,199.7-166.6,346.9-166.6c115.3,0,211.4,35.5,288.1,106.5c76.7,71,125,172.7,144.9,305.1l-194.3,20.5
		c-35.8-175.6-114.8-263.4-236.9-263.4c-78.4,0-139.3,36.5-182.8,109.5c-43.5,73-65.2,178.8-65.2,317.5
		c0,140.9,23.3,247.3,69.9,319.2c46.6,71.9,108.2,107.8,184.9,107.8c61.4,0,113.6-24.1,156.8-72.4
		C2735.9,1206,2760.4,1148.3,2766.1,1081.2z"/>
	<path class="st0" d="M3828,1485.2h-194.3V921.9c0-60.8-12.9-103.6-38.8-128.3c-25.9-24.7-56.1-37.1-90.8-37.1
		c-55.1,0-101.4,21.9-138.9,65.6c-37.5,43.8-56.2,115.9-56.2,216.5v446.6h-194.3V321.9H3309v453.4c48.3-123.9,133-185.8,254-185.8
		c176.7,0,265.1,101.4,265.1,304.3V1485.2z"/>
	<path class="st0" d="M4797.9,1485.2h-184.9c-16.5-52.3-26.4-110.2-29.8-173.9c-51.7,127.8-148.9,191.8-291.5,191.8
		c-85.8,0-154.7-25.1-206.7-75.4c-52-50.3-78-113.5-78-189.6c0-197.7,173.6-296.6,520.7-296.6c13.6,0,32.1,0.3,55.4,0.9v-64.8
		c0-89.2-60.8-133.8-182.4-133.8c-118.2,0-185.2,44.6-201.1,133.8l-165.3-24.7c9.1-71.6,46-130.5,110.8-176.8
		c64.8-46.3,158.5-69.5,281.2-69.5c66.5,0,120.7,5.5,162.8,16.6c42,11.1,77.6,29.8,106.5,56.2c29,26.4,49,55.1,60.1,86.1
		c11.1,31,16.6,83.4,16.6,157.2v388.6C4772.3,1367.6,4780.8,1425.5,4797.9,1485.2z M4583.1,1047.1c-251.1,0-376.7,60-376.7,179.8
		c0,35.8,12.6,66.3,37.9,91.6c25.3,25.3,63.5,37.9,114.6,37.9c73.9,0,129.7-23.4,167.5-70.3c37.8-46.9,56.7-100.1,56.7-159.8V1047.1
		z"/>
	<path class="st0" d="M5403.8,1333.5v151.7c-58,12.5-102.8,18.8-134.7,18.8c-52.3,0-97.2-10.4-134.7-31.1s-64.9-49.1-82.2-85.2
		c-17.3-36.1-26-91.6-26-166.6V775.3h-107.4V624.4h118.5l17.9-224.1l159.4-14.5v238.6h173v150.9h-173v420.2
		c0,54,9.8,90.8,29.4,110.4c19.6,19.6,56.7,29.4,111.2,29.4C5370.6,1335.2,5386.8,1334.6,5403.8,1333.5z"/>
	<path class="st0" d="M5788.2,1485.2h-209.7V321.9h209.7V1485.2z"/>
	<path class="st0" d="M6745.3,1485.2H6551V947.4c0-56.8-13.1-99.6-39.2-128.3c-26.1-28.7-57.7-43-94.6-43
		c-50.6,0-94.9,22.2-133,66.5c-38.1,44.3-57.1,111.1-57.1,200.3v442.3h-194.3V624.4h177.3v199.4c61.9-144.9,148.9-217.3,260.8-217.3
		c75.6,0,140.2,23.9,193.9,71.6c53.7,47.7,80.5,131.5,80.5,251.4V1485.2z"/>
	<path class="st0" d="M8566.6,1485.2h-213.9V466.7l-322.2,1018.5h-109.9L7596.7,466.7v1018.5h-171.3V321.9h328.1l243.8,749.1
		l239.5-749.1h329.8V1485.2z"/>
	<path class="st0" d="M9359.2,1210.8l175.6,23.9c-22.7,77.9-67.1,142.1-133,192.6c-65.9,50.6-148.6,75.9-248,75.9
		c-119.3,0-215.3-40.1-288.1-120.2c-72.7-80.1-109.1-188.6-109.1-325.6c0-130.1,36.6-237.8,109.9-323
		c73.3-85.2,172.7-127.8,298.3-127.8c122.7,0,217.6,42.1,284.7,126.1c67,84.1,100.6,192.1,100.6,323.9l-0.9,22.2h-590.6
		c0,58.5,5.5,105.4,16.6,140.6c11.1,35.2,33.1,65.9,66.1,92c32.9,26.1,74.1,39.2,123.6,39.2
		C9260.9,1350.5,9325.7,1304,9359.2,1210.8z M9347.3,953.4c-0.6-61.9-19.2-112.5-55.8-151.7c-36.6-39.2-82-58.8-135.9-58.8
		c-53.4,0-98,18.3-133.8,55c-35.8,36.6-56.8,88.5-63.1,155.5H9347.3z"/>
</g>
</svg>
